<?xml version="1.0" standalone="no"?>
<!DOCTYPE svg PUBLIC "-//W3C//DTD SVG 20010904//EN"
 "http://www.w3.org/TR/2001/REC-SVG-20010904/DTD/svg10.dtd">
<svg version="1.0" xmlns="http://www.w3.org/2000/svg"
 width="700.000000pt" height="700.000000pt" viewBox="0 0 700.000000 700.000000"
 preserveAspectRatio="xMidYMid meet">
<metadata>
Created by potrace 1.14, written by Peter Selinger 2001-2017
</metadata>
<g transform="translate(0.000000,700.000000) scale(0.100000,-0.100000)"
fill="#000000" stroke="none">
<path d="M0 3500 l0 -3500 3500 0 3500 0 0 3500 0 3500 -3500 0 -3500 0 0
-3500z m4994 2164 c24 -24 29 -54 24 -176 -4 -100 -8 -122 -37 -190 -48 -114
-157 -272 -242 -353 -133 -126 -278 -208 -531 -299 -249 -90 -370 -116 -534
-116 -47 0 -105 -5 -130 -11 -41 -11 -48 -17 -84 -79 -22 -38 -53 -102 -69
-144 -38 -99 -125 -442 -144 -571 -20 -129 -58 -247 -117 -365 -59 -116 -133
-221 -290 -410 -66 -80 -146 -183 -177 -229 -101 -153 -177 -337 -207 -506
l-14 -80 -1 71 c-2 139 46 335 119 489 56 118 140 240 289 420 278 337 373
523 402 790 9 90 11 99 68 314 64 242 79 276 246 556 188 314 288 450 425 577
182 170 442 276 730 298 69 6 139 14 155 19 48 15 102 12 119 -5z m-2296 -197
c21 -17 69 -65 107 -107 39 -41 115 -122 171 -180 55 -58 109 -118 121 -135
50 -73 113 -216 138 -313 24 -95 52 -308 42 -318 -2 -3 -10 24 -16 58 -26 135
-79 298 -82 248 0 -8 -7 10 -15 40 -8 30 -26 74 -41 99 -27 47 -229 269 -372
410 -48 47 -85 88 -83 93 1 4 -4 8 -11 8 -8 0 -22 -19 -33 -42 l-18 -41 -9 39
c-10 48 -2 108 21 154 21 42 36 55 40 34 2 -9 20 -30 40 -47z m-59 -491 c19
-47 94 -147 149 -198 96 -90 223 -158 322 -174 l40 -7 0 -78 c0 -44 -4 -79 -9
-79 -38 0 -181 58 -242 98 -86 56 -202 176 -242 250 -34 63 -57 165 -56 252
l1 65 12 -50 c7 -27 19 -63 25 -79z m-516 -497 c93 -48 258 -170 379 -283 266
-246 367 -391 407 -588 11 -52 15 -58 47 -68 l34 -12 0 -75 0 -75 -29 5 c-19
4 -31 2 -35 -6 -3 -8 -5 -7 -5 3 -1 8 -30 30 -66 48 -35 19 -106 61 -157 93
-51 33 -118 67 -148 75 -171 49 -393 233 -467 389 -45 96 -73 231 -80 388 l-6
127 42 0 c23 0 61 -10 84 -21z m2464 -1252 c13 -13 17 -36 18 -110 0 -85 -2
-96 -25 -125 -14 -17 -77 -95 -141 -174 -172 -213 -259 -284 -434 -353 -188
-74 -326 -102 -578 -116 -239 -13 -323 -4 -420 46 -37 19 -74 35 -80 35 -7 0
-39 -27 -72 -61 -119 -121 -348 -309 -377 -309 -13 0 -10 138 5 150 6 5 49 37
95 70 93 68 312 276 312 296 0 8 5 14 11 14 6 0 50 36 98 80 104 95 157 136
401 306 210 146 322 207 412 223 100 18 269 33 458 41 240 10 296 8 317 -13z
m-2187 -1217 c-6 -36 -23 -99 -36 -140 -32 -96 -145 -321 -219 -436 l-57 -89
4 85 c4 83 5 87 55 163 112 169 232 437 250 559 l8 53 3 -65 c2 -36 -2 -94 -8
-130z"/>
<path d="M4886 5520 c-16 -5 -87 -14 -158 -19 -342 -28 -627 -163 -830 -395
-69 -80 -199 -263 -268 -380 l-24 -39 125 6 c141 7 260 33 439 97 406 145 588
275 741 527 69 114 101 187 86 202 -13 13 -69 13 -111 1z"/>
<path d="M2026 4313 c26 -142 87 -254 194 -357 103 -98 202 -161 313 -199 57
-20 124 -54 177 -88 97 -64 149 -93 157 -85 9 8 -66 137 -117 201 -78 98 -348
355 -450 428 -108 76 -221 137 -257 137 -22 0 -23 -3 -17 -37z"/>
<path d="M4315 3089 c-219 -8 -471 -33 -545 -55 -103 -31 -144 -55 -445 -267
-214 -150 -304 -221 -294 -231 3 -3 34 -13 70 -22 54 -14 97 -16 269 -11 233
7 338 22 506 72 276 84 372 154 581 422 55 70 68 92 55 95 -9 1 -98 0 -197 -3z"/>
</g>
</svg>
