<?xml version="1.0" encoding="utf-8"?>
<!-- Generator: Adobe Illustrator 24.0.0, SVG Export Plug-In . SVG Version: 6.00 Build 0)  -->
<svg version="1.1" id="Layer_1" xmlns="http://www.w3.org/2000/svg" xmlns:xlink="http://www.w3.org/1999/xlink" x="0px" y="0px"
	 viewBox="0 0 1000 223.6" style="enable-background:new 0 0 1000 223.6;" xml:space="preserve">
<style type="text/css">
	.st0{fill:#001410;}
	.st1{opacity:0.12;}
	.st2{fill:#EEE0CB;}
	.st3{fill:#839788;}
	.st4{fill:#FFFFFF;}
</style>
<g>
	<path class="st2" d="M49.3,79.3c-2,0.1-4.1,0.2-6.2,0.1c-2.1,0-4.2-0.1-6.3-0.3v35.8c0,3.4,0,6.2-0.1,8.6s-0.3,4.4-0.5,5.9
		l13.3-0.7v8H8.1v-6c3.5-0.1,6.1-0.7,7.8-1.9c1.7-1.1,3-2.7,3.7-4.7s1.1-4.3,1.1-7s0-5.7,0-8.9V28.7c0-2.5,0-4.9,0.1-7.1
		s0.3-4.3,0.5-6.2L8.1,16.3V8.1C15,8,22,7.9,29,7.8s14.1,0,21.2,0.1c8.9,0.2,16.4,1,22.7,2.6c6.3,1.5,11.5,3.7,15.5,6.5
		s7,6.2,8.9,10.2s2.8,8.6,2.8,13.6c0,3.6-0.5,7.3-1.4,11c-1,3.7-2.7,7.3-5.3,10.6c-2.6,3.4-6.1,6.3-10.5,9
		c-4.5,2.6-10.2,4.7-17.2,6.1c2.4,1.7,4.5,4,6.5,6.7c1.9,2.7,4,5.8,6.3,9.4l12.6,19.7c1.6,2.5,3.1,4.7,4.5,6.9s3,4,4.7,5.5
		c1.7,1.6,3.6,2.8,5.7,3.7c2.1,0.9,4.6,1.3,7.5,1.3v6H90.3c-1.8-1.6-3.4-3.1-4.8-4.7s-2.8-3.2-4.1-4.8c-1.3-1.7-2.5-3.4-3.7-5.2
		c-1.2-1.8-2.5-3.7-3.8-5.7L61.6,96.7c-0.8-1.3-1.7-2.7-2.6-4.3s-1.9-3.1-2.9-4.6c-1-1.6-2.1-3.1-3.2-4.5
		C51.7,81.9,50.5,80.5,49.3,79.3z M36.8,72.2c1.9,0.1,3.8,0.2,5.5,0.3c1.8,0.1,3.7,0.1,5.9,0c5-0.2,9.6-0.8,13.8-1.9
		c4.2-1.1,7.7-2.8,10.8-5.2c3-2.3,5.4-5.3,7-9c1.7-3.7,2.5-8.2,2.5-13.5c0-9.2-2.6-16.2-7.9-20.9s-13.6-7-24.9-7
		c-3.5,0-6.1,0.5-7.8,1.6c-1.7,1-3,2.5-3.7,4.4s-1.1,4.2-1.1,6.9s0,5.7,0,9v35.3L36.8,72.2L36.8,72.2z"/>
	<path class="st2" d="M188.9,115.6c0,3.4,0,6.3-0.1,8.6c-0.1,2.3-0.3,4.2-0.5,5.8l35.2-0.5c4-0.1,7.6-0.6,10.9-1.5
		c3.2-0.9,6-2.5,8.3-4.7s4.1-5.1,5.3-8.7c1.3-3.6,1.9-8.1,1.9-13.6h6.3l-1.1,35.8h-94.8v-6.1c2.9-0.1,5.2-0.5,7-1.4
		c1.7-0.9,3-2.1,3.8-3.5c0.8-1.5,1.4-3.3,1.6-5.3c0.2-2.1,0.3-4.4,0.3-6.9v-5.4V28.7c0-2.5,0-4.9,0.1-7.1s0.3-4.3,0.5-6.2l-13.3,0.8
		V8.1h88.3l0.9,32.2h-6c0-5.3-0.6-9.6-1.8-12.9s-2.9-6-5-7.9s-4.6-3.2-7.5-3.9c-2.9-0.7-6-1-9.3-1l-17,0.3c-3.4,0.2-6.1,0.7-7.9,1.6
		c-1.9,0.9-3.3,2.2-4.2,4s-1.4,4-1.6,6.7c-0.2,2.7-0.2,5.9-0.2,9.7v29.6h34.4l-1.3-15.9h8.2v38.7h-6c0-3.6-0.3-6.4-0.9-8.6
		c-0.6-2.1-1.6-3.8-3-4.9c-1.3-1.2-3.1-1.9-5.1-2.3c-2.1-0.4-4.6-0.5-7.5-0.5c-0.8,0-1.7,0-2.6,0c-0.9,0-6.3,0.2-16.1,0.6v42H188.9z
		"/>
	<path class="st2" d="M340,114.9c0,3.4,0,6.2-0.1,8.6s-0.3,4.4-0.5,5.9l18.7-0.7v8h-46.8v-6c3.5-0.1,6.1-0.7,7.8-1.9
		c1.7-1.1,3-2.7,3.7-4.7s1.1-4.3,1.1-7.1c0-2.7,0-5.7,0-8.9V28.7c0-2.5,0-4.9,0.1-7.1s0.3-4.3,0.5-6.2l-13.3,0.8V8.1h85.2l1,32.2
		h-6.1c0-5.4-0.7-9.9-2-13.2c-1.3-3.4-3.2-6-5.5-7.9s-5-3.1-8.1-3.8c-3.1-0.6-6.4-0.9-9.8-0.9l-13.3,0.4c-3.4,0.1-6,0.8-7.8,1.9
		c-1.8,1.2-3,2.8-3.7,4.8S340,26,340,28.7c0,2.7,0,5.7,0,8.8v31.8h31.9l-1.3-15.9h8.2v38.7h-6c0-3.6-0.3-6.4-0.9-8.6
		c-0.6-2.1-1.6-3.8-3-4.9c-1.3-1.2-3.1-1.9-5.1-2.3c-2.1-0.4-4.6-0.5-7.5-0.5c-0.8,0-1.7,0-2.6,0s-5.4,0.2-13.6,0.6v38.5H340z"/>
	<path class="st2" d="M461.3,28.7c0-2.5,0-4.9,0.1-7.1s0.3-4.3,0.5-6.2l-13.3,0.8V8.1H490v6c-3.5,0.1-6.1,0.8-7.8,1.9
		c-1.7,1.2-3,2.7-3.7,4.7s-1.1,4.3-1.1,7s0,5.7,0,9v78.2c0,3.4,0,6.2-0.1,8.6s-0.3,4.4-0.5,5.9l13.3-0.7v8h-41.4v-6
		c3.5-0.1,6.1-0.7,7.8-1.9c1.7-1.1,3-2.7,3.7-4.7s1.1-4.3,1.1-7.1c0-2.7,0-5.7,0-8.9V28.7z"/>
	<path class="st2" d="M656.3,139.7h-8.9L567.7,32.5h-0.3l0.6,78.8c0,3.2,0,6.3,0,9.3s-0.1,6-0.3,8.9l13.3-0.7v8h-33.6v-6
		c2.8,0,5-0.5,6.6-1.5s2.8-2.2,3.6-3.6s1.3-3,1.5-4.7s0.3-3.2,0.3-4.7l0.2-100.9l-12.3,0.8V8.1h21.9l78.2,104.7h0.2l0.2-84.1
		c0-5.1,0.2-9.6,0.5-13.3l-13.2,0.8V8.1h33.8v6c-3.5,0.1-6.1,0.8-7.8,1.9c-1.7,1.1-2.9,2.7-3.6,4.7c-0.7,2-1,4.3-1,7s0,5.7,0,9
		L656.3,139.7z"/>
	<path class="st2" d="M752.4,115.6c0,3.4,0,6.3-0.1,8.6c-0.1,2.3-0.3,4.2-0.5,5.8l35.2-0.5c4-0.1,7.6-0.6,10.9-1.5
		c3.2-0.9,6-2.5,8.3-4.7s4.1-5.1,5.3-8.7c1.3-3.6,1.9-8.1,1.9-13.6h6.3l-1.1,35.7h-94.8v-6.1c2.9-0.1,5.2-0.5,7-1.4
		c1.7-0.9,3-2.1,3.8-3.5c0.8-1.5,1.4-3.3,1.6-5.3c0.2-2.1,0.3-4.4,0.3-6.9v-5.4V28.7c0-2.5,0-4.9,0.1-7.1s0.3-4.3,0.5-6.2l-13.3,0.8
		V8.1h88.4l0.9,32.2h-6c0-5.3-0.6-9.6-1.8-12.9s-2.9-6-5-7.9s-4.6-3.2-7.5-3.9c-2.9-0.7-6-1-9.3-1l-17,0.3c-3.4,0.2-6.1,0.7-7.9,1.6
		c-1.8,0.9-3.3,2.2-4.2,4s-1.4,4-1.6,6.7c-0.2,2.7-0.2,5.9-0.2,9.7v29.6H787l-1.3-15.9h8.2v38.7h-6c0-3.6-0.3-6.4-0.9-8.6
		c-0.6-2.1-1.6-3.8-3-4.9c-1.4-1.1-3.1-1.9-5.1-2.3c-2.1-0.4-4.6-0.5-7.5-0.5c-0.8,0-1.7,0-2.6,0c-0.9,0-6.3,0.2-16.1,0.6v42
		L752.4,115.6L752.4,115.6z"/>
	<path class="st2" d="M918.1,7.9c11.1,0,21.3,1.3,30.5,3.9s17.1,6.5,23.7,11.8c6.6,5.3,11.7,12.1,15.4,20.2
		c3.6,8.1,5.5,17.7,5.5,28.8c0,5.6-0.7,11.1-2,16.5s-3.3,10.4-5.9,15.2c-2.6,4.8-5.9,9.1-9.8,13.1c-3.9,4-8.5,7.4-13.6,10.3
		c-5.2,2.9-11,5.1-17.4,6.7c-6.5,1.6-13.5,2.4-21.2,2.4h-48.4v-6.1c3.5-0.1,6.1-0.7,7.8-1.9c1.7-1.1,3-2.7,3.7-4.7s1.1-4.3,1.1-7
		s0-5.7,0-8.9V28.7c0-2.5,0-4.9,0.1-7.1s0.3-4.3,0.5-6.1l-13.3,0.8V8.1L918.1,7.9z M903.5,115c0,3.4,0,6.2-0.1,8.5s-0.3,4.3-0.5,5.8
		c2.4,0.1,4.8,0.2,7,0.3c2.2,0.1,4.2,0.1,6,0.1s3.2,0,4.4,0s2,0,2.3,0c7.9,0,15.1-1.5,21.5-4.4c6.5-2.9,12-7,16.6-12.2
		s8.1-11.3,10.6-18.3c2.5-7.1,3.8-14.7,3.8-23c0-8.7-1.2-16.5-3.5-23.5c-2.4-7-6-13-10.8-18s-11-8.8-18.3-11.5
		c-7.4-2.7-16.1-4-26.2-4c-3.5,0-6.1,0.5-7.8,1.6s-3,2.6-3.7,4.5s-1.1,4.3-1.1,7s0,5.7,0,9V115H903.5z"/>
	<path class="st2" d="M124.6,174.3h4.3v40.9h-4.3V174.3z"/>
	<path class="st2" d="M156.5,214.1c-2.8-1-4.9-2.3-6.5-3.9l1.7-3.3c1.5,1.5,3.4,2.7,5.9,3.6s5,1.4,7.6,1.4c3.7,0,6.4-0.7,8.2-2
		s2.7-3.1,2.7-5.2c0-1.6-0.5-2.9-1.5-3.9s-2.2-1.7-3.7-2.3c-1.4-0.5-3.4-1.1-6-1.7c-3.1-0.8-5.5-1.5-7.4-2.3
		c-1.8-0.7-3.4-1.8-4.7-3.3s-2-3.5-2-6c0-2.1,0.5-3.9,1.6-5.6s2.8-3,5-4.1c2.3-1,5.1-1.5,8.4-1.5c2.3,0,4.6,0.3,6.9,1
		c2.2,0.6,4.2,1.5,5.8,2.7l-1.5,3.4c-1.7-1.1-3.5-2-5.5-2.5c-1.9-0.6-3.9-0.8-5.7-0.8c-3.6,0-6.3,0.7-8.1,2.1s-2.7,3.2-2.7,5.4
		c0,1.6,0.5,3,1.5,3.9c1,1,2.2,1.8,3.7,2.3s3.5,1.1,6,1.7c3,0.7,5.4,1.5,7.3,2.2c1.9,0.7,3.4,1.8,4.7,3.3s1.9,3.4,1.9,5.9
		c0,2.1-0.6,3.9-1.7,5.6c-1.1,1.7-2.8,3-5.1,4s-5.1,1.5-8.5,1.5C162.2,215.6,159.3,215.1,156.5,214.1z"/>
	<path class="st2" d="M201.6,174.3h4.3v37.2h22.9v3.7h-27.2V174.3z"/>
	<path class="st2" d="M273.5,204.3h-22.8l-4.9,10.9h-4.5l18.7-40.9h4.3l18.7,40.9h-4.6L273.5,204.3z M271.9,200.8l-9.8-22l-9.8,22
		H271.9z"/>
	<path class="st2" d="M335.7,174.3v40.9h-3.6L305.8,182v33.2h-4.3v-40.9h3.6l26.4,33.2v-33.2L335.7,174.3L335.7,174.3z"/>
	<path class="st2" d="M360.7,174.3h16.7c4.3,0,8.1,0.9,11.5,2.6c3.3,1.7,5.9,4.2,7.7,7.2c1.8,3.1,2.7,6.6,2.7,10.6
		s-0.9,7.5-2.7,10.6c-1.8,3.1-4.4,5.5-7.7,7.2c-3.3,1.7-7.1,2.6-11.5,2.6h-16.7V174.3z M377.1,211.5c3.6,0,6.7-0.7,9.4-2.1
		c2.7-1.4,4.8-3.4,6.3-5.9s2.2-5.4,2.2-8.7c0-3.3-0.7-6.2-2.2-8.7s-3.6-4.5-6.3-5.9c-2.7-1.4-5.8-2.1-9.4-2.1H365v33.4L377.1,211.5
		L377.1,211.5z"/>
	<path class="st2" d="M454.5,212.9c-3.3-1.8-5.8-4.3-7.7-7.5c-1.9-3.2-2.8-6.7-2.8-10.7c0-3.9,0.9-7.5,2.8-10.7s4.4-5.7,7.7-7.5
		c3.3-1.8,6.9-2.7,11-2.7c3,0,5.8,0.5,8.4,1.5s4.8,2.5,6.5,4.4l-2.7,2.7c-3.2-3.2-7.2-4.9-12.1-4.9c-3.2,0-6.2,0.7-8.8,2.2
		c-2.7,1.5-4.7,3.5-6.2,6.1s-2.3,5.5-2.3,8.7s0.8,6.1,2.3,8.7s3.6,4.6,6.2,6.1s5.6,2.2,8.8,2.2c4.9,0,8.9-1.6,12.1-4.9l2.7,2.7
		c-1.8,1.9-4,3.4-6.6,4.5c-2.6,1-5.4,1.5-8.4,1.5C461.4,215.6,457.7,214.7,454.5,212.9z"/>
	<path class="st2" d="M529.3,215.2l-9.4-13.2c-1.1,0.1-2.1,0.2-3.3,0.2h-11v13h-4.3v-40.9h15.3c5.2,0,9.3,1.2,12.3,3.7
		s4.4,5.9,4.4,10.3c0,3.2-0.8,5.9-2.4,8.1s-3.9,3.8-6.9,4.8l10,14H529.3L529.3,215.2z M525.9,195.9c2.1-1.8,3.2-4.3,3.2-7.5
		c0-3.3-1.1-5.9-3.2-7.6c-2.1-1.8-5.2-2.7-9.3-2.7h-10.9v20.5h10.9C520.6,198.6,523.7,197.7,525.9,195.9z"/>
	<path class="st2" d="M584.3,211.5v3.7h-28.9v-40.9h28.1v3.7h-23.7v14.6H581v3.7h-21.2v15.2L584.3,211.5L584.3,211.5z"/>
	<path class="st2" d="M631.8,204.3H609l-4.9,10.9h-4.5l18.7-40.9h4.3l18.7,40.9h-4.6L631.8,204.3z M630.2,200.8l-9.8-22l-9.8,22
		H630.2z"/>
	<path class="st2" d="M665.7,178.1h-14.4v-3.7h33.1v3.7H670v37.2h-4.3L665.7,178.1L665.7,178.1z"/>
	<path class="st2" d="M703,174.3h4.3v40.9H703V174.3z"/>
	<path class="st2" d="M739.2,212.9c-3.3-1.8-5.9-4.3-7.7-7.5s-2.8-6.7-2.8-10.6s0.9-7.5,2.8-10.6c1.9-3.2,4.4-5.6,7.7-7.5
		c3.3-1.8,7-2.7,11-2.7c4.1,0,7.7,0.9,11,2.7c3.3,1.8,5.8,4.3,7.7,7.5s2.8,6.7,2.8,10.7c0,3.9-0.9,7.5-2.8,10.7
		c-1.9,3.2-4.4,5.7-7.7,7.5s-6.9,2.7-11,2.7C746.1,215.6,742.5,214.7,739.2,212.9z M759,209.5c2.6-1.5,4.7-3.5,6.1-6.1
		c1.5-2.6,2.2-5.5,2.2-8.7s-0.7-6.1-2.2-8.7s-3.5-4.6-6.1-6.1s-5.5-2.2-8.8-2.2c-3.2,0-6.2,0.7-8.8,2.2s-4.7,3.5-6.2,6.1
		s-2.3,5.5-2.3,8.7s0.8,6.1,2.3,8.7s3.6,4.6,6.2,6.1c2.6,1.5,5.6,2.2,8.8,2.2C753.4,211.7,756.3,211,759,209.5z"/>
	<path class="st2" d="M827.2,174.3v40.9h-3.6L797.3,182v33.2H793v-40.9h3.6l26.4,33.2v-33.2L827.2,174.3L827.2,174.3z"/>
	<path class="st2" d="M854.8,214.1c-2.8-1-4.9-2.3-6.5-3.9l1.7-3.3c1.5,1.5,3.4,2.7,5.9,3.6s5,1.4,7.6,1.4c3.7,0,6.4-0.7,8.2-2
		s2.7-3.1,2.7-5.2c0-1.6-0.5-2.9-1.5-3.9s-2.2-1.7-3.7-2.3c-1.4-0.5-3.4-1.1-6-1.7c-3.1-0.8-5.5-1.5-7.4-2.3
		c-1.8-0.7-3.4-1.8-4.7-3.3s-2-3.5-2-6c0-2.1,0.5-3.9,1.6-5.6s2.8-3,5-4.1c2.3-1,5.1-1.5,8.4-1.5c2.3,0,4.6,0.3,6.9,1
		c2.2,0.6,4.2,1.5,5.8,2.7l-1.5,3.4c-1.7-1.1-3.5-2-5.5-2.5c-1.9-0.6-3.9-0.8-5.7-0.8c-3.6,0-6.3,0.7-8.1,2.1s-2.7,3.2-2.7,5.4
		c0,1.6,0.5,3,1.5,3.9c1,1,2.2,1.8,3.7,2.3s3.5,1.1,6,1.7c3,0.7,5.4,1.5,7.3,2.2c1.9,0.7,3.4,1.8,4.7,3.3s1.9,3.4,1.9,5.9
		c0,2.1-0.6,3.9-1.7,5.6c-1.1,1.7-2.8,3-5.1,4s-5.1,1.5-8.5,1.5C860.5,215.6,857.6,215.1,854.8,214.1z"/>
</g>
</svg>
